<svg width="221" height="214" viewBox="0 0 221 214" fill="none" xmlns="http://www.w3.org/2000/svg">
<path d="M210.416 12.2138C239.35 40.3384 198.468 35.2486 190.184 48.191C179.536 64.8279 200.443 73.6357 182.177 99.525C147.61 148.519 108.22 129.971 109.811 152.15C113.621 205.243 67.5458 218.517 31.4981 211.552C11.8353 207.754 -10.5358 195.501 7.61976 178.538C22.8729 164.287 54.0181 174.095 63.9765 154.698C73.4642 136.219 45.9885 117.404 62.7505 98.6238C78.4626 81.2459 104.878 98.1058 118.304 82.7534C133.522 65.3537 107.8 49.2652 119.317 28.0636C134.646 -0.157323 187.888 -9.68356 210.416 12.2138Z" fill="url(#paint0_linear_0_3)"/>
<defs>
<linearGradient id="paint0_linear_0_3" x1="209.261" y1="62.5114" x2="73.2137" y2="70.2349" gradientUnits="userSpaceOnUse">
<stop stop-color="#2CC4D7"/>
<stop offset="1" stop-color="#5192E1"/>
</linearGradient>
</defs>
</svg>
